<?xml version="1.0" standalone="no"?>
<!DOCTYPE svg PUBLIC "-//W3C//DTD SVG 20010904//EN"
 "http://www.w3.org/TR/2001/REC-SVG-20010904/DTD/svg10.dtd">
<svg version="1.0" xmlns="http://www.w3.org/2000/svg"
 width="2938.000000pt" height="2463.000000pt" viewBox="0 0 2938.000000 2463.000000"
 preserveAspectRatio="xMidYMid meet">
<metadata>
Created by potrace 1.16, written by Peter Selinger 2001-2019
</metadata>
<g transform="translate(0.000000,2463.000000) scale(0.100000,-0.100000)"
fill="#000000" stroke="none">
<path d="M11000 19052 c0 -7 5 -12 10 -12 7 0 10 -233 11 -677 1 -373 5 -662
8 -643 5 22 10 -30 15 -141 8 -171 4 -225 -15 -214 -5 4 -9 -5 -9 -20 0 -32
42 -52 77 -36 18 8 23 19 23 50 0 25 5 41 15 45 9 3 15 19 15 41 0 24 4 35 15
35 11 0 15 11 15 40 0 28 4 40 14 40 10 0 16 13 18 38 2 23 8 36 16 35 8 -2
12 10 12 37 0 29 4 40 15 40 10 0 15 10 15 30 0 20 5 30 15 30 9 0 15 9 15 25
0 14 7 28 15 31 8 4 15 15 15 25 0 11 7 22 15 25 8 4 15 15 15 25 0 11 7 22
15 25 8 4 15 16 15 29 0 13 7 25 15 29 8 3 15 12 15 21 0 8 5 15 10 15 6 0 16
12 23 28 12 27 48 73 80 101 9 8 17 21 17 28 0 7 5 13 10 13 6 0 14 9 18 19 6
17 152 176 152 167 0 -3 14 9 30 26 17 16 30 34 30 39 0 5 7 9 15 9 8 0 15 7
15 15 0 8 9 15 19 15 10 0 21 7 25 15 3 8 10 15 17 15 10 0 32 18 90 73 11 9
28 17 38 17 10 0 21 7 25 15 3 8 12 15 21 15 8 0 15 7 15 15 0 9 9 15 24 15
13 0 29 7 36 15 7 8 19 15 27 15 7 0 16 7 19 15 4 8 15 15 25 15 11 0 22 7 25
15 4 9 19 15 35 15 19 0 29 5 29 15 0 10 10 15 30 15 19 0 33 7 40 20 7 13 21
20 39 20 16 0 31 7 35 15 3 9 18 15 36 15 17 0 38 7 46 15 9 8 31 15 50 15 24
0 34 5 34 15 0 11 12 15 44 15 30 0 46 5 50 15 4 11 21 15 60 15 39 0 55 4 60
15 3 10 19 15 46 15 39 0 40 1 40 35 l0 35 -938 0 c-716 0 -941 3 -950 12 -9
9 -12 9 -12 0z"/>
<path d="M14292 19028 c-9 -9 -12 -898 -12 -3980 0 -3520 -2 -3968 -15 -3968
-13 0 -15 -23 -15 -145 0 -122 -2 -145 -15 -145 -12 0 -15 -14 -15 -70 0 -56
-3 -70 -15 -70 -11 0 -15 -12 -15 -45 0 -27 -5 -47 -14 -52 -8 -4 -16 -21 -18
-38 -2 -17 -8 -29 -15 -27 -8 1 -13 -9 -13 -27 0 -16 -6 -31 -15 -35 -8 -3
-15 -17 -15 -31 0 -16 -6 -25 -15 -25 -9 0 -15 -9 -15 -25 0 -16 -6 -25 -15
-25 -8 0 -15 -7 -15 -16 0 -25 -158 -172 -189 -176 -20 -2 -27 -9 -29 -30 -4
-30 13 -68 29 -68 6 0 8 4 5 9 -3 5 1 12 10 15 9 3 633 6 1389 6 l1373 0 5 20
c6 25 -43 80 -71 80 -22 0 -112 92 -112 114 0 9 -5 16 -10 16 -6 0 -14 10 -19
22 -6 17 -4 26 8 35 9 7 11 12 4 13 -6 0 -15 -4 -18 -10 -11 -18 -25 -10 -25
15 0 16 -6 25 -15 25 -8 0 -15 9 -15 20 0 11 -7 23 -15 26 -8 4 -15 17 -15 30
0 14 -6 27 -14 30 -8 3 -17 23 -21 44 -4 21 -13 41 -21 44 -9 3 -14 20 -14 46
0 23 -4 39 -9 36 -13 -9 -21 20 -21 79 0 38 -4 54 -15 59 -12 4 -15 25 -15
100 0 67 -4 96 -12 98 -10 4 -14 820 -18 4019 l-5 4014 -930 3 c-716 2 -934
-1 -943 -10z"/>
<path d="M17494 19026 c-12 -32 1 -51 41 -57 21 -4 41 -12 43 -18 2 -6 23 -11
47 -11 50 0 77 -8 69 -21 -3 -5 15 -9 41 -9 31 0 47 -5 51 -15 4 -10 20 -15
45 -15 26 0 42 -5 45 -15 4 -9 19 -15 40 -15 22 0 37 -6 40 -15 4 -8 19 -15
35 -15 18 0 32 -7 39 -20 7 -13 21 -20 39 -20 16 0 31 -7 35 -15 3 -8 16 -15
30 -15 13 0 26 -7 30 -15 3 -8 15 -15 26 -15 11 0 20 -7 20 -15 0 -9 9 -15 25
-15 14 0 28 -7 31 -15 4 -8 16 -15 29 -15 13 0 25 -7 29 -15 3 -8 12 -15 20
-15 7 0 16 -7 20 -15 3 -8 15 -15 26 -15 11 0 23 -7 26 -15 4 -8 10 -15 16
-15 5 0 23 -13 41 -30 18 -16 38 -30 45 -30 18 0 392 -373 392 -391 0 -8 20
-37 45 -64 25 -28 45 -55 45 -62 0 -6 14 -27 30 -45 17 -18 30 -40 30 -50 0
-10 7 -18 15 -18 8 0 15 -9 15 -20 0 -11 7 -23 15 -26 8 -4 15 -16 15 -28 0
-12 9 -27 20 -34 12 -7 18 -17 15 -21 -8 -14 6 -41 21 -41 9 0 14 -11 14 -30
0 -20 5 -30 15 -30 10 0 15 -10 15 -29 0 -16 6 -31 15 -35 9 -3 15 -18 15 -35
0 -16 6 -31 15 -35 9 -3 15 -18 15 -40 0 -21 6 -36 15 -40 9 -3 15 -18 15 -40
0 -21 6 -36 15 -40 10 -3 15 -19 15 -45 0 -22 3 -46 6 -55 7 -19 48 -21 60 -3
5 7 7 400 4 897 l-5 885 -953 3 c-824 2 -953 0 -958 -12z"/>
<path d="M18460 16683 c0 -5 -9 -19 -21 -31 -11 -13 -23 -39 -26 -60 -3 -20
-12 -41 -20 -45 -7 -4 -13 -21 -13 -37 0 -20 -5 -30 -15 -30 -10 0 -15 -10
-15 -30 0 -20 -5 -30 -15 -30 -8 0 -15 -9 -15 -20 0 -11 -7 -23 -15 -26 -8 -4
-15 -17 -15 -30 0 -13 -5 -24 -10 -24 -6 0 -15 -11 -20 -25 -5 -14 -14 -25
-20 -25 -5 0 -10 -9 -10 -19 0 -10 -7 -21 -15 -25 -8 -3 -15 -12 -15 -20 0 -7
-7 -16 -15 -20 -8 -3 -15 -15 -15 -26 0 -11 -7 -20 -15 -20 -8 0 -15 -5 -15
-10 0 -6 -18 -29 -40 -52 -39 -39 -42 -40 -55 -22 -8 11 -15 14 -15 9 0 -6 5
-16 12 -23 9 -9 -13 -35 -90 -112 -56 -55 -108 -100 -115 -100 -7 0 -26 -13
-42 -30 -16 -16 -35 -30 -42 -30 -7 0 -13 -7 -13 -15 0 -9 -9 -15 -25 -15 -14
0 -25 -5 -25 -10 0 -6 -11 -15 -25 -20 -14 -5 -25 -14 -25 -20 0 -13 -47 -13
-55 0 -4 6 -11 8 -16 4 -5 -3 -7 -10 -3 -15 3 -5 10 -7 15 -4 5 4 9 -1 9 -9 0
-11 -9 -16 -30 -16 -20 0 -30 -5 -30 -15 0 -10 -10 -15 -30 -15 -20 0 -30 -5
-30 -15 0 -10 -10 -15 -29 -15 -21 0 -32 -6 -36 -20 -5 -15 -15 -20 -40 -20
-20 0 -35 -6 -39 -15 -3 -9 -18 -15 -40 -15 -21 0 -36 -6 -40 -15 -4 -10 -19
-15 -49 -15 -27 0 -49 -6 -57 -15 -8 -10 -31 -15 -71 -15 -46 0 -59 -3 -59
-15 0 -10 -11 -15 -35 -15 -33 0 -35 -2 -35 -35 0 -19 -4 -35 -10 -35 -5 0
-10 -5 -10 -12 0 -9 3 -9 12 0 19 19 174 16 182 -3 4 -11 21 -15 61 -15 40 0
57 -4 61 -15 4 -10 20 -15 50 -15 32 0 44 -4 44 -15 0 -11 11 -15 35 -15 22 0
38 -6 41 -15 4 -9 19 -15 35 -15 17 0 32 -6 35 -15 4 -8 17 -15 29 -15 13 0
30 -7 39 -15 8 -8 22 -15 31 -15 8 0 18 -7 21 -15 4 -8 17 -15 30 -15 15 0 24
-6 24 -15 0 -10 10 -15 30 -15 20 0 30 -5 30 -15 0 -8 7 -15 15 -15 8 0 19 -9
25 -20 6 -11 19 -20 29 -20 10 0 31 -13 47 -30 16 -16 34 -30 40 -30 7 0 14
-7 18 -15 3 -8 12 -15 21 -15 8 0 15 -7 15 -15 0 -8 6 -15 13 -15 14 0 198
-176 211 -201 16 -33 33 -57 59 -84 15 -17 27 -36 27 -43 0 -7 7 -15 15 -18 8
-4 15 -15 15 -25 0 -10 7 -19 15 -19 9 0 15 -9 15 -25 0 -14 5 -25 10 -25 6 0
15 -11 20 -25 5 -14 14 -25 20 -25 5 0 10 -11 10 -25 0 -14 7 -28 15 -31 8 -4
15 -17 15 -30 0 -13 9 -28 19 -34 12 -6 17 -17 14 -29 -3 -11 4 -26 15 -37 11
-11 22 -35 24 -54 3 -30 7 -35 28 -35 l25 0 0 1260 0 1260 -22 3 c-13 2 -23
-1 -23 -5z"/>
<path d="M13827 15445 c-5 -12 -26 -15 -112 -15 -81 0 -110 -4 -121 -15 -11
-11 -37 -15 -90 -15 -54 0 -73 -3 -71 -12 1 -9 -19 -15 -66 -18 -37 -3 -67 -9
-67 -15 0 -5 -23 -11 -52 -13 -33 -2 -56 -9 -61 -18 -5 -9 -24 -14 -53 -14
-30 0 -46 -5 -50 -15 -4 -10 -20 -15 -50 -15 -32 0 -44 -4 -44 -15 0 -11 -11
-15 -40 -15 -27 0 -43 -5 -46 -15 -4 -9 -19 -15 -40 -15 -23 0 -37 -6 -44 -20
-7 -13 -21 -20 -39 -20 -16 0 -31 -7 -35 -15 -3 -9 -18 -15 -40 -15 -21 0 -36
-6 -40 -15 -3 -8 -16 -15 -30 -15 -13 0 -26 -7 -30 -15 -3 -9 -18 -15 -35 -15
-16 0 -31 -6 -35 -15 -3 -8 -16 -15 -30 -15 -13 0 -26 -7 -30 -15 -3 -8 -16
-15 -30 -15 -13 0 -26 -7 -30 -15 -3 -8 -17 -15 -31 -15 -14 0 -25 -5 -25 -10
0 -6 -11 -15 -25 -20 -14 -5 -25 -14 -25 -20 0 -5 -11 -10 -25 -10 -16 0 -25
-6 -25 -15 0 -10 -10 -15 -30 -15 -19 0 -30 -5 -30 -14 0 -8 -9 -18 -20 -21
-11 -3 -20 -10 -20 -14 0 -5 -13 -11 -30 -14 -18 -4 -30 -13 -30 -22 0 -8 -7
-15 -15 -15 -9 0 -18 -7 -21 -15 -4 -8 -15 -15 -25 -15 -11 0 -22 -7 -25 -15
-4 -8 -12 -15 -19 -15 -7 0 -15 -7 -19 -15 -3 -8 -12 -15 -20 -15 -9 0 -37
-20 -63 -45 -26 -24 -56 -45 -65 -45 -10 0 -18 -3 -18 -7 0 -5 -16 -21 -36
-36 -34 -28 -36 -28 -49 -10 -8 10 -15 13 -15 8 0 -6 5 -16 11 -22 7 -7 -1
-22 -29 -52 -21 -22 -44 -41 -50 -41 -7 0 -12 -7 -12 -15 0 -8 -8 -15 -17 -15
-23 0 -353 -331 -353 -353 0 -9 -7 -17 -15 -17 -8 0 -15 -4 -15 -9 0 -6 -27
-38 -60 -73 -33 -35 -62 -71 -66 -80 -3 -10 -10 -18 -15 -18 -5 0 -9 -6 -9
-13 0 -7 -13 -24 -29 -38 -15 -14 -31 -35 -35 -47 -4 -12 -12 -22 -17 -22 -5
0 -9 -6 -9 -12 0 -7 -16 -29 -35 -48 -19 -19 -35 -42 -35 -52 0 -10 -4 -18 -9
-18 -5 0 -13 -9 -16 -20 -3 -11 -13 -20 -21 -20 -8 0 -14 -8 -14 -19 0 -10 -7
-24 -15 -31 -8 -7 -15 -19 -15 -26 0 -8 -7 -14 -15 -14 -9 0 -15 -9 -15 -25 0
-14 -7 -28 -15 -31 -8 -4 -15 -13 -15 -20 0 -8 -7 -17 -15 -20 -8 -4 -15 -17
-15 -30 0 -15 -6 -24 -15 -24 -10 0 -15 -10 -15 -30 0 -20 -5 -30 -15 -30 -9
0 -15 -9 -15 -25 0 -14 -7 -28 -15 -31 -8 -4 -15 -14 -15 -25 0 -10 -6 -22
-14 -26 -8 -4 -16 -19 -18 -33 -1 -14 -7 -23 -12 -22 -12 5 -26 -19 -26 -45 0
-14 -6 -23 -15 -23 -13 0 -21 -25 -16 -52 0 -5 -5 -7 -12 -5 -7 1 -13 -11 -15
-30 -2 -21 -9 -33 -18 -33 -9 0 -14 -11 -14 -34 0 -21 -6 -36 -15 -40 -9 -3
-15 -18 -15 -36 0 -18 -6 -33 -15 -36 -9 -4 -15 -19 -15 -35 0 -19 -5 -29 -15
-29 -10 0 -15 -10 -15 -34 0 -19 -7 -41 -15 -50 -8 -8 -15 -24 -15 -34 0 -29
-11 -53 -21 -46 -5 3 -9 -13 -9 -36 0 -27 -5 -43 -15 -46 -10 -4 -15 -20 -15
-45 0 -26 -5 -42 -15 -45 -10 -4 -15 -20 -15 -45 0 -26 -5 -42 -15 -45 -10 -4
-15 -20 -15 -48 0 -29 -6 -47 -20 -59 -15 -13 -20 -29 -20 -67 0 -38 -4 -50
-15 -50 -12 0 -15 -13 -15 -60 0 -47 -3 -60 -15 -60 -12 0 -15 -14 -15 -64 0
-48 -4 -65 -15 -70 -11 -4 -15 -23 -15 -81 0 -60 -3 -75 -15 -75 -12 0 -15
-17 -15 -90 0 -71 -3 -92 -15 -96 -12 -5 -15 -28 -15 -124 0 -120 -5 -154 -21
-144 -5 3 -9 -208 -9 -506 0 -298 4 -509 9 -506 16 10 21 -24 21 -150 0 -94 3
-123 13 -121 9 1 13 -23 15 -93 2 -70 7 -97 17 -103 11 -6 15 -28 15 -83 0
-57 4 -76 15 -80 11 -5 15 -23 15 -70 0 -48 4 -66 15 -70 11 -5 15 -21 15 -60
0 -39 4 -56 15 -60 10 -4 15 -20 15 -48 0 -22 5 -48 10 -56 5 -8 10 -10 10 -5
0 6 5 3 10 -5 5 -8 10 -34 10 -58 0 -28 4 -41 13 -40 8 2 13 -13 15 -42 2 -26
10 -48 18 -53 8 -5 14 -23 14 -46 0 -25 5 -41 15 -45 10 -3 15 -19 15 -46 0
-29 4 -40 15 -40 10 0 15 -11 15 -35 0 -24 5 -35 15 -35 11 0 15 -11 15 -41 0
-22 4 -38 9 -35 11 7 21 -17 21 -50 0 -15 6 -24 15 -24 10 0 15 -10 15 -29 0
-16 6 -31 15 -35 8 -3 15 -17 15 -31 0 -14 7 -28 15 -31 9 -4 15 -19 15 -35 0
-19 5 -29 15 -29 8 0 14 -3 14 -7 -4 -26 3 -53 14 -53 7 0 13 -10 14 -22 1
-13 11 -29 23 -37 11 -7 20 -24 20 -36 0 -13 7 -25 15 -29 8 -3 15 -15 15 -26
0 -11 6 -19 12 -18 7 2 14 -7 16 -20 2 -13 10 -26 18 -29 8 -3 14 -15 14 -28
0 -13 7 -25 15 -29 8 -3 15 -12 15 -21 0 -8 7 -15 15 -15 9 0 15 -9 15 -22 0
-13 14 -36 30 -52 17 -16 30 -36 30 -45 0 -9 14 -29 30 -45 17 -16 30 -35 30
-43 0 -7 7 -16 15 -19 8 -4 15 -11 15 -18 0 -6 16 -26 35 -43 19 -18 35 -37
35 -43 0 -5 5 -10 10 -10 6 0 14 -10 19 -23 8 -20 73 -94 179 -204 17 -18 32
-38 32 -43 0 -6 7 -10 15 -10 8 0 15 -7 15 -15 0 -8 7 -15 15 -15 8 0 15 -7
15 -15 0 -8 5 -15 10 -15 6 0 24 -14 40 -30 16 -17 34 -30 40 -30 5 0 10 -7
10 -15 0 -8 7 -15 15 -15 8 0 15 -6 15 -14 0 -8 4 -16 9 -18 5 -1 48 -39 94
-83 99 -93 113 -105 125 -105 5 0 29 -19 53 -43 24 -24 52 -46 62 -50 9 -3 17
-11 17 -17 0 -5 7 -10 16 -10 8 0 30 -16 48 -35 19 -19 38 -35 44 -35 5 0 13
-7 16 -16 3 -8 10 -13 16 -9 5 3 17 -3 27 -15 10 -11 25 -20 35 -20 10 0 18
-6 18 -14 0 -7 8 -17 18 -20 34 -13 72 -37 72 -47 0 -5 6 -9 14 -9 7 0 19 -7
26 -15 7 -8 23 -15 36 -15 15 0 24 -6 24 -15 0 -8 9 -15 20 -15 11 0 23 -7 26
-15 4 -8 15 -15 25 -15 11 0 22 -7 25 -15 4 -8 17 -15 30 -15 14 0 27 -7 30
-15 4 -8 16 -15 29 -15 13 0 25 -7 29 -15 3 -8 17 -15 30 -15 15 0 30 -8 36
-20 6 -12 21 -20 35 -20 16 0 25 -6 25 -15 0 -10 10 -15 30 -15 20 0 30 -5 30
-15 0 -10 10 -15 29 -15 16 0 31 -6 35 -15 3 -9 18 -15 35 -15 16 0 31 -6 35
-15 3 -8 14 -15 25 -15 28 0 52 -11 45 -21 -3 -5 13 -9 35 -9 30 0 41 -4 41
-15 0 -10 10 -15 34 -15 21 0 36 -6 40 -15 3 -9 19 -15 41 -15 22 0 38 -6 41
-15 4 -10 20 -15 45 -15 26 0 42 -5 45 -15 4 -10 20 -15 50 -15 32 0 44 -4 44
-15 0 -11 12 -15 45 -15 31 0 47 -5 51 -15 4 -10 20 -15 50 -15 32 0 49 -6 61
-20 13 -15 30 -20 69 -20 37 0 54 -4 58 -15 4 -11 21 -15 66 -15 47 0 60 -3
60 -15 0 -12 15 -15 75 -15 60 0 75 -3 75 -15 0 -12 15 -15 75 -15 58 0 77 -4
81 -15 5 -12 26 -15 105 -15 79 0 101 -3 105 -15 5 -12 30 -15 134 -15 101 0
132 -3 144 -15 22 -23 830 -23 852 0 12 12 44 15 149 15 109 0 134 3 139 15 4
12 25 15 95 15 70 0 90 3 95 15 4 11 22 15 76 15 56 0 70 3 70 15 0 12 14 15
65 15 49 0 67 4 71 15 5 11 21 15 60 15 41 0 54 4 54 15 0 11 12 15 45 15 34
0 47 5 55 20 8 15 21 20 51 20 23 0 47 7 55 15 9 8 30 15 49 15 20 0 35 6 39
15 3 10 19 15 46 15 29 0 40 4 40 15 0 11 11 15 39 15 25 0 41 5 45 15 3 8 17
15 31 15 15 0 33 7 41 15 9 8 28 15 44 15 16 0 30 7 34 15 3 9 18 15 36 15 20
0 30 5 30 15 0 10 10 15 30 15 20 0 30 5 30 15 0 10 10 15 30 15 18 0 33 6 36
15 4 8 17 15 30 15 15 0 24 6 24 15 0 10 10 15 30 15 20 0 30 5 30 15 0 8 11
17 24 21 14 3 27 12 30 20 3 8 14 14 25 14 10 0 21 7 25 15 3 8 16 15 30 15
13 0 26 7 30 15 3 8 12 15 21 15 8 0 15 4 15 9 0 5 14 14 30 20 17 5 30 15 30
20 0 6 9 11 20 11 11 0 20 5 20 10 0 6 11 15 25 20 14 5 25 14 25 20 0 5 9 10
20 10 11 0 20 7 20 15 0 8 8 15 18 15 9 0 30 14 46 30 16 17 35 30 43 30 7 0
16 7 19 15 4 8 11 15 18 15 6 0 22 12 35 25 13 14 27 25 33 25 5 0 6 5 3 10
-3 6 1 10 9 10 9 0 16 7 16 15 0 8 7 15 15 15 9 0 23 6 31 13 31 25 149 133
196 180 26 26 52 47 58 47 5 0 10 7 10 15 0 8 5 15 12 15 6 0 28 17 48 37 20
21 71 71 113 111 42 40 77 76 77 80 0 5 13 19 30 32 21 18 29 34 30 58 0 29
-3 32 -30 32 -16 0 -30 -4 -30 -9 0 -12 -199 -211 -211 -211 -5 0 -9 -7 -9
-15 0 -8 -7 -15 -15 -15 -8 0 -15 -7 -15 -15 0 -8 -4 -15 -8 -15 -4 0 -28 -19
-54 -42 -25 -24 -63 -56 -84 -73 -21 -16 -55 -46 -75 -65 -77 -71 -95 -85
-122 -97 -15 -7 -27 -17 -27 -23 0 -5 -6 -10 -12 -10 -7 -1 -24 -14 -38 -30
-13 -17 -30 -30 -36 -30 -7 0 -28 -13 -46 -30 -18 -16 -40 -30 -50 -30 -10 0
-18 -7 -18 -15 0 -8 -9 -15 -19 -15 -10 0 -21 -7 -25 -15 -3 -8 -15 -15 -26
-15 -11 0 -20 -7 -20 -15 0 -8 -9 -15 -20 -15 -11 0 -23 -7 -26 -15 -4 -8 -17
-15 -30 -15 -15 0 -24 -6 -24 -15 0 -8 -8 -15 -19 -15 -10 0 -24 -7 -31 -15
-7 -8 -19 -15 -26 -15 -8 0 -19 -8 -25 -19 -7 -10 -20 -16 -30 -14 -11 3 -22
-3 -28 -16 -7 -12 -22 -21 -35 -21 -13 0 -26 -7 -30 -15 -3 -8 -16 -15 -30
-15 -13 0 -26 -7 -30 -15 -3 -9 -18 -15 -36 -15 -20 0 -30 -5 -30 -15 0 -10
-10 -15 -29 -15 -16 0 -31 -6 -35 -15 -3 -9 -18 -15 -35 -15 -16 0 -31 -6 -35
-15 -3 -9 -18 -15 -35 -15 -16 0 -31 -6 -35 -15 -3 -9 -19 -15 -41 -15 -24 0
-35 -4 -35 -15 0 -11 -11 -15 -40 -15 -27 0 -43 -5 -46 -15 -4 -10 -20 -15
-45 -15 -28 0 -39 -4 -39 -15 0 -11 -12 -15 -45 -15 -31 0 -47 -5 -51 -15 -4
-11 -21 -15 -55 -15 -37 0 -49 -4 -49 -15 0 -12 -13 -15 -55 -15 -43 0 -59 -4
-72 -20 -14 -16 -30 -20 -86 -20 -38 0 -66 -4 -63 -9 9 -14 -21 -21 -96 -21
-48 0 -74 -5 -84 -15 -12 -12 -45 -15 -157 -15 -80 0 -136 -4 -129 -9 20 -12
-89 -21 -263 -21 -174 0 -283 9 -263 21 7 5 -42 9 -114 9 -99 0 -130 3 -142
15 -10 11 -36 15 -90 15 -53 0 -79 4 -90 15 -9 9 -33 15 -64 15 -35 0 -56 6
-72 20 -15 13 -37 20 -65 20 -29 0 -45 5 -49 15 -4 10 -20 15 -50 15 -30 0
-46 5 -50 15 -3 10 -19 15 -46 15 -29 0 -40 4 -40 15 0 13 -38 22 -72 16 -5 0
-8 6 -8 14 0 10 -11 15 -35 15 -24 0 -35 5 -35 15 0 11 -11 15 -35 15 -22 0
-38 6 -41 15 -4 9 -19 15 -35 15 -19 0 -29 5 -29 15 0 10 -10 15 -29 15 -16 0
-31 6 -35 15 -3 8 -17 15 -31 15 -16 0 -25 6 -25 15 0 8 -9 15 -20 15 -11 0
-23 7 -26 15 -4 8 -17 15 -30 15 -15 0 -24 6 -24 15 0 9 -9 15 -25 15 -14 0
-28 7 -31 15 -4 8 -12 15 -20 15 -7 0 -18 9 -24 20 -6 11 -19 20 -29 20 -10 0
-31 13 -47 30 -16 16 -37 30 -46 30 -10 0 -18 7 -18 16 0 9 -5 14 -12 12 -6
-2 -34 17 -62 44 -28 26 -59 50 -68 54 -10 3 -18 10 -18 15 0 5 -5 9 -11 9
-13 0 -299 286 -299 299 0 5 -7 11 -15 15 -8 3 -15 11 -15 19 0 7 -20 34 -45
59 -25 26 -45 54 -45 62 0 9 -7 16 -15 16 -8 0 -15 6 -15 14 0 8 -13 30 -30
48 -16 18 -30 40 -30 50 0 10 -5 18 -10 18 -6 0 -15 11 -20 25 -5 14 -14 25
-20 25 -5 0 -10 9 -10 20 0 11 -7 23 -15 26 -8 4 -15 16 -15 29 0 13 -7 25
-15 29 -8 3 -15 12 -15 20 0 9 -9 20 -20 26 -12 6 -20 21 -20 35 0 16 -6 25
-15 25 -10 0 -15 10 -15 29 0 16 -6 31 -15 35 -8 3 -15 16 -15 30 0 13 -7 26
-15 30 -9 3 -15 18 -15 36 0 20 -5 30 -15 30 -10 0 -15 10 -15 30 0 20 -5 30
-15 30 -10 0 -15 10 -15 34 0 21 -6 36 -15 40 -9 3 -15 19 -15 41 0 24 -4 35
-15 35 -10 0 -15 10 -15 34 0 21 -6 36 -15 40 -9 3 -15 18 -15 39 0 19 -7 40
-15 47 -8 7 -15 28 -15 46 0 24 -5 34 -15 34 -11 0 -15 12 -15 45 0 30 -4 45
-13 45 -8 0 -14 15 -15 43 -2 25 -9 47 -19 54 -9 7 -18 31 -20 54 -3 23 -11
48 -19 56 -8 8 -14 34 -14 59 0 27 -6 52 -15 60 -10 10 -15 35 -15 69 0 38 -4
54 -15 59 -11 4 -15 21 -15 61 0 37 -5 62 -15 71 -10 11 -15 37 -15 85 0 39
-4 68 -9 65 -15 -10 -21 22 -21 110 0 48 -4 83 -9 80 -15 -10 -21 23 -21 124
0 78 -3 99 -15 104 -12 4 -15 30 -15 141 0 108 -3 140 -15 151 -13 13 -15 113
-15 774 0 417 3 765 6 774 3 9 10 13 15 10 5 -3 9 66 9 161 0 138 3 167 15
171 12 5 15 27 15 109 0 106 5 139 21 129 5 -3 9 39 9 96 0 80 3 102 15 106
12 5 15 24 15 84 0 57 4 83 15 94 10 9 15 34 15 69 0 61 7 90 21 81 5 -3 9 22
9 55 0 65 7 94 21 85 5 -3 9 22 9 55 0 41 4 63 14 68 8 5 16 31 19 62 3 35 11
57 21 63 11 6 16 23 16 57 0 34 5 51 15 55 10 4 15 20 15 50 0 30 5 46 15 50
10 4 15 20 15 51 0 33 4 45 15 45 11 0 15 12 15 45 0 33 4 45 15 45 11 0 15
11 15 40 0 27 5 43 15 46 10 4 15 20 15 44 0 24 5 40 15 44 8 3 15 16 15 30 0
14 6 31 14 39 8 8 16 29 18 48 2 21 8 33 16 31 8 -1 12 10 12 33 0 19 6 38 14
42 8 4 16 22 18 38 2 17 8 29 16 27 7 -1 12 9 12 27 0 16 7 36 15 45 8 8 15
27 15 41 0 18 6 29 20 32 14 4 20 14 20 34 0 19 5 29 15 29 9 0 15 9 15 24 0
13 7 26 15 30 8 3 15 17 15 31 0 16 6 25 15 25 9 0 15 9 15 24 0 13 7 26 15
30 8 3 15 15 15 26 0 11 7 23 15 26 8 4 15 17 15 30 0 15 6 24 15 24 8 0 15 9
15 19 0 10 7 21 15 25 8 3 15 15 15 27 0 12 14 35 30 51 17 15 30 35 30 43 0
9 14 29 30 45 17 16 30 36 30 45 0 9 7 18 15 21 8 4 15 11 15 18 0 6 23 33 50
61 28 27 50 56 50 63 0 7 7 15 15 18 8 4 15 11 15 18 0 12 313 326 325 326 10
0 88 62 98 77 4 7 17 13 27 13 11 0 20 5 20 10 0 6 11 15 25 20 14 5 25 14 25
20 0 5 11 10 25 10 14 0 25 5 25 10 0 6 11 15 25 20 14 5 25 14 25 20 0 5 11
10 24 10 13 0 26 7 30 15 3 8 17 15 31 15 14 0 28 7 31 15 4 9 19 15 40 15 22
0 37 6 40 15 4 8 16 15 28 15 32 0 48 15 44 41 -3 22 -8 24 -74 27 -57 2 -73
0 -77 -13z"/>
<path d="M15955 4931 c-4 -8 -344 -11 -1126 -11 -996 0 -1119 -2 -1105 -15 22
-22 2241 -23 2233 -1 -3 8 -1 17 6 19 7 2 9 7 6 11 -4 4 -10 3 -14 -3z"/>
</g>
</svg>
